<svg xmlns="http://www.w3.org/2000/svg" width="1135.729" height="530.304" viewBox="0 0 1135.729 530.304">
  <g id="sintesis" transform="translate(-231.136 -560)">
    <g id="Trazado_736433" data-name="Trazado 736433" transform="translate(325.576 633.51)" fill="#4dd0e1">
      <path d="M 124.1610565185547 66.6279296875 L 12.97205543518066 66.6279296875 C 6.094946384429932 66.6279296875 0.500001072883606 59.2331657409668 0.500001072883606 50.14376449584961 L 0.500001072883606 16.98418235778809 C 0.500001072883606 7.894783020019531 6.094946384429932 0.5000011920928955 12.97205543518066 0.5000011920928955 L 124.1610565185547 0.5000011920928955 C 131.0381469726562 0.5000011920928955 136.633056640625 7.894783020019531 136.633056640625 16.98418235778809 L 136.633056640625 50.14376449584961 C 136.633056640625 59.2331657409668 131.0381469726562 66.6279296875 124.1610565185547 66.6279296875 Z" stroke="none"/>
      <path d="M 12.97203826904297 1 C 6.370635986328125 1 1 8.170475006103516 1 16.98418426513672 L 1 50.14376449584961 C 1 58.95745468139648 6.370635986328125 66.1279296875 12.97203826904297 66.1279296875 L 124.1610565185547 66.1279296875 C 130.7624359130859 66.1279296875 136.133056640625 58.95745468139648 136.133056640625 50.14376449584961 L 136.133056640625 16.98418426513672 C 136.133056640625 8.170475006103516 130.7624359130859 1 124.1610565185547 1 L 12.97203826904297 1 M 12.97203826904297 0 L 124.1610565185547 0 C 131.3252716064453 0 137.133056640625 7.604072570800781 137.133056640625 16.98418426513672 L 137.133056640625 50.14376449584961 C 137.133056640625 59.52385711669922 131.3252716064453 67.1279296875 124.1610565185547 67.1279296875 L 12.97203826904297 67.1279296875 C 5.807785034179688 67.1279296875 0 59.52385711669922 0 50.14376449584961 L 0 16.98418426513672 C 0 7.604072570800781 5.807785034179688 0 12.97203826904297 0 Z" stroke="none" fill="#707070"/>
    </g>
    <g id="Trazado_736427" data-name="Trazado 736427" transform="translate(802.636 631.972)" fill="#3da6b4" opacity="0.85">
      <path d="M 110.5389938354492 66.62793731689453 L 11.54884147644043 66.62793731689453 C 5.456488132476807 66.62793731689453 0.4999956488609314 59.2331657409668 0.4999956488609314 50.14376449584961 L 0.4999956488609314 16.98418045043945 C 0.4999956488609314 7.89476490020752 5.456488132476807 0.499995619058609 11.54884147644043 0.499995619058609 L 110.5389938354492 0.499995619058609 C 116.6313323974609 0.499995619058609 121.5878143310547 7.89476490020752 121.5878143310547 16.98418045043945 L 121.5878143310547 50.14376449584961 C 121.5878143310547 59.2331657409668 116.6313323974609 66.62793731689453 110.5389938354492 66.62793731689453 Z" stroke="none"/>
      <path d="M 11.54885101318359 1 C 8.805366516113281 1 6.198867797851562 2.611213684082031 4.209518432617188 5.536849975585938 C 2.139839172363281 8.580596923828125 1 12.64601516723633 1 16.98418045043945 L 1 50.14374542236328 C 1 54.48191452026367 2.139839172363281 58.54733276367188 4.209518432617188 61.59107971191406 C 6.198867797851562 64.51671600341797 8.805366516113281 66.1279296875 11.54885101318359 66.1279296875 L 110.5389862060547 66.1279296875 C 113.2824554443359 66.1279296875 115.8889389038086 64.51671600341797 117.878303527832 61.59107971191406 C 119.9479827880859 58.54733276367188 121.0878067016602 54.48191452026367 121.0878067016602 50.14374542236328 L 121.0878067016602 16.98418045043945 C 121.0878067016602 12.64601516723633 119.9479827880859 8.580596923828125 117.878303527832 5.536849975585938 C 115.8889389038086 2.611213684082031 113.2824554443359 1 110.5389862060547 1 L 11.54885101318359 1 M 11.54885101318359 0 L 110.5389862060547 0 C 116.9172210693359 0 122.0878067016602 7.60406494140625 122.0878067016602 16.98418045043945 L 122.0878067016602 50.14374542236328 C 122.0878067016602 59.52386474609375 116.9172210693359 67.1279296875 110.5389862060547 67.1279296875 L 11.54885101318359 67.1279296875 C 5.170585632324219 67.1279296875 0 59.52386474609375 0 50.14374542236328 L 0 16.98418045043945 C 0 7.60406494140625 5.170585632324219 0 11.54885101318359 0 Z" stroke="none" fill="#707070"/>
    </g>
    <g id="Trazado_736426" data-name="Trazado 736426" transform="translate(1186.864 616.438)" fill="#3da6b4" opacity="0.85">
      <path d="M 162.6648864746094 102.8418045043945 L 16.99483489990234 102.8418045043945 C 7.899538516998291 102.8418045043945 0.4999930858612061 91.33673858642578 0.4999930858612061 77.19508361816406 L 0.4999930858612061 26.1467170715332 C 0.4999930858612061 12.0050802230835 7.899538516998291 0.5000120997428894 16.99483489990234 0.5000120997428894 L 162.6648864746094 0.5000120997428894 C 171.7601318359375 0.5000120997428894 179.15966796875 12.0050802230835 179.15966796875 26.1467170715332 L 179.15966796875 77.19508361816406 C 179.15966796875 91.33673858642578 171.7601318359375 102.8418045043945 162.6648864746094 102.8418045043945 Z" stroke="none"/>
      <path d="M 16.99482727050781 0.9999923706054688 C 14.89743041992188 0.9999923706054688 12.85527038574219 1.636856079101562 10.92507934570312 2.892898559570312 C 9.019195556640625 4.133125305175781 7.30029296875 5.919761657714844 5.81610107421875 8.203170776367188 C 4.311492919921875 10.51805877685547 3.128402709960938 13.22012329101562 2.299758911132812 16.23430633544922 C 1.437286376953125 19.37146759033203 1 22.70648956298828 1 26.14671325683594 L 1 77.19508361816406 C 1 80.63530731201172 1.437286376953125 83.97032928466797 2.299758911132812 87.10746765136719 C 3.128402709960938 90.12167358398438 4.311492919921875 92.82373809814453 5.81610107421875 95.13862609863281 C 7.30029296875 97.42201232910156 9.019195556640625 99.20864868164062 10.92507934570312 100.4488754272461 C 12.85527038574219 101.7049179077148 14.89743041992188 102.3417816162109 16.99482727050781 102.3417816162109 L 162.6648864746094 102.3417816162109 C 164.7622680664062 102.3417816162109 166.8044281005859 101.7049179077148 168.7345886230469 100.4488754272461 C 170.6404876708984 99.20864868164062 172.3594055175781 97.42201232910156 173.8435668945312 95.13862609863281 C 175.3481750488281 92.82373809814453 176.5312652587891 90.12167358398438 177.3599090576172 87.10746765136719 C 178.2223815917969 83.97032928466797 178.65966796875 80.63530731201172 178.65966796875 77.19508361816406 L 178.65966796875 26.14671325683594 C 178.65966796875 22.70648956298828 178.2223815917969 19.37146759033203 177.3599090576172 16.23430633544922 C 176.5312652587891 13.22012329101562 175.3481750488281 10.51805877685547 173.8435668945312 8.203170776367188 C 172.3594055175781 5.919761657714844 170.6404876708984 4.133125305175781 168.7345886230469 2.892898559570312 C 166.8044281005859 1.636856079101562 164.7622680664062 0.9999923706054688 162.6648864746094 0.9999923706054688 L 16.99482727050781 0.9999923706054688 M 16.99482727050781 -7.62939453125e-06 L 162.6648864746094 -7.62939453125e-06 C 172.0508270263672 -7.62939453125e-06 179.65966796875 11.70628356933594 179.65966796875 26.14671325683594 L 179.65966796875 77.19508361816406 C 179.65966796875 91.63551330566406 172.0508270263672 103.3417816162109 162.6648864746094 103.3417816162109 L 16.99482727050781 103.3417816162109 C 7.608840942382812 103.3417816162109 0 91.63551330566406 0 77.19508361816406 L 0 26.14671325683594 C 0 11.70628356933594 7.608840942382812 -7.62939453125e-06 16.99482727050781 -7.62939453125e-06 Z" stroke="none" fill="#707070"/>
    </g>
    <g id="Trazado_736428" data-name="Trazado 736428" transform="translate(976.696 560)" fill="#3da6b4" opacity="0.85">
      <path d="M 112.8542709350586 66.6279296875 L 11.79073715209961 66.6279296875 C 5.565003395080566 66.6279296875 0.5000035166740417 59.2331657409668 0.5000035166740417 50.14376449584961 L 0.5000035166740417 16.98418235778809 C 0.5000035166740417 7.89476490020752 5.565003395080566 0.4999981820583344 11.79073715209961 0.4999981820583344 L 112.8542709350586 0.4999981820583344 C 119.0799865722656 0.4999981820583344 124.1449737548828 7.89476490020752 124.1449737548828 16.98418235778809 L 124.1449737548828 50.14376449584961 C 124.1449737548828 59.2331657409668 119.0799865722656 66.6279296875 112.8542709350586 66.6279296875 Z" stroke="none"/>
      <path d="M 11.79073333740234 1 C 8.978652954101562 1 6.309471130371094 2.614051818847656 4.274887084960938 5.544815063476562 C 2.163040161132812 8.586849212646484 1 12.64943313598633 1 16.98418045043945 L 1 50.14374542236328 C 1 54.47850036621094 2.163040161132812 58.54108047485352 4.274887084960938 61.58311462402344 C 6.309471130371094 64.51387786865234 8.978652954101562 66.1279296875 11.79073333740234 66.1279296875 L 112.8542709350586 66.1279296875 C 115.6663360595703 66.1279296875 118.3355026245117 64.51387786865234 120.3700866699219 61.58311462402344 C 122.48193359375 58.54108047485352 123.6449737548828 54.47850036621094 123.6449737548828 50.14374542236328 L 123.6449737548828 16.98418045043945 C 123.6449737548828 12.64943313598633 122.48193359375 8.586849212646484 120.3700866699219 5.544815063476562 C 118.3355026245117 2.614051818847656 115.6663360595703 1 112.8542709350586 1 L 11.79073333740234 1 M 11.79073333740234 0 L 112.8542709350586 0 C 119.3660888671875 0 124.6449737548828 7.60406494140625 124.6449737548828 16.98418045043945 L 124.6449737548828 50.14374542236328 C 124.6449737548828 59.52386474609375 119.3660888671875 67.1279296875 112.8542709350586 67.1279296875 L 11.79073333740234 67.1279296875 C 5.278884887695312 67.1279296875 0 59.52386474609375 0 50.14374542236328 L 0 16.98418045043945 C 0 7.60406494140625 5.278884887695312 0 11.79073333740234 0 Z" stroke="none" fill="#707070"/>
    </g>
    <g id="Trazado_736429" data-name="Trazado 736429" transform="translate(976.696 704.902)" fill="#3da6b4" opacity="0.85">
      <path d="M 112.8542709350586 66.6279296875 L 11.79073715209961 66.6279296875 C 5.565003395080566 66.6279296875 0.5000035166740417 59.2331657409668 0.5000035166740417 50.14376449584961 L 0.5000035166740417 16.98418235778809 C 0.5000035166740417 7.89476490020752 5.565003395080566 0.4999981820583344 11.79073715209961 0.4999981820583344 L 112.8542709350586 0.4999981820583344 C 119.0799865722656 0.4999981820583344 124.1449737548828 7.89476490020752 124.1449737548828 16.98418235778809 L 124.1449737548828 50.14376449584961 C 124.1449737548828 59.2331657409668 119.0799865722656 66.6279296875 112.8542709350586 66.6279296875 Z" stroke="none"/>
      <path d="M 11.79073333740234 1 C 8.978652954101562 1 6.309471130371094 2.614051818847656 4.274887084960938 5.544815063476562 C 2.163040161132812 8.586849212646484 1 12.64943313598633 1 16.98418045043945 L 1 50.14374542236328 C 1 54.47850036621094 2.163040161132812 58.54108047485352 4.274887084960938 61.58311462402344 C 6.309471130371094 64.51387786865234 8.978652954101562 66.1279296875 11.79073333740234 66.1279296875 L 112.8542709350586 66.1279296875 C 115.6663360595703 66.1279296875 118.3355026245117 64.51387786865234 120.3700866699219 61.58311462402344 C 122.48193359375 58.54108047485352 123.6449737548828 54.47850036621094 123.6449737548828 50.14374542236328 L 123.6449737548828 16.98418045043945 C 123.6449737548828 12.64943313598633 122.48193359375 8.586849212646484 120.3700866699219 5.544815063476562 C 118.3355026245117 2.614051818847656 115.6663360595703 1 112.8542709350586 1 L 11.79073333740234 1 M 11.79073333740234 0 L 112.8542709350586 0 C 119.3660888671875 0 124.6449737548828 7.60406494140625 124.6449737548828 16.98418045043945 L 124.6449737548828 50.14374542236328 C 124.6449737548828 59.52386474609375 119.3660888671875 67.1279296875 112.8542709350586 67.1279296875 L 11.79073333740234 67.1279296875 C 5.278884887695312 67.1279296875 0 59.52386474609375 0 50.14374542236328 L 0 16.98418045043945 C 0 7.60406494140625 5.278884887695312 0 11.79073333740234 0 Z" stroke="none" fill="#707070"/>
    </g>
    <g id="Trazado_736430" data-name="Trazado 736430" transform="translate(509.636 633.51)" fill="rgba(105,196,208,0.89)">
      <path d="M 222.5233154296875 70.8671875 L 23.24869728088379 70.8671875 C 20.16322898864746 70.8671875 17.17107200622559 70.39818572998047 14.35529136657715 69.47319030761719 C 11.64144706726074 68.58165740966797 9.205821990966797 67.30665588378906 7.116103649139404 65.68359375 C 5.035697460174561 64.06781005859375 3.403916120529175 62.18915557861328 2.266103744506836 60.09981155395508 C 1.094228744506836 57.9478759765625 0.5000099539756775 55.66359329223633 0.5000099539756775 53.3104362487793 L 0.5000099539756775 18.05674934387207 C 0.5000099539756775 15.70359420776367 1.094228744506836 13.41931247711182 2.266103744506836 11.26737499237061 C 3.403916120529175 9.178030967712402 5.035697460174561 7.299375057220459 7.116103649139404 5.68359375 C 9.205821990966797 4.060531139373779 11.64144706726074 2.785531282424927 14.35529136657715 1.894000053405762 C 17.17107200622559 0.968999981880188 20.16322898864746 0.5 23.24869728088379 0.5 L 222.5233154296875 0.5 C 225.6087646484375 0.5 228.6009521484375 0.968999981880188 231.4167022705078 1.894000053405762 C 234.1305389404297 2.785531282424927 236.566162109375 4.060531139373779 238.6558837890625 5.68359375 C 240.7362976074219 7.299375057220459 242.3680419921875 9.178030967712402 243.505859375 11.26737499237061 C 244.6777648925781 13.41931247711182 245.2719421386719 15.70359420776367 245.2719421386719 18.05674934387207 L 245.2719421386719 53.3104362487793 C 245.2719421386719 55.66359329223633 244.6777648925781 57.9478759765625 243.505859375 60.09981155395508 C 242.3680419921875 62.18915557861328 240.7362976074219 64.06781005859375 238.6558837890625 65.68359375 C 236.566162109375 67.30665588378906 234.1305389404297 68.58165740966797 231.4167022705078 69.47319030761719 C 228.6009521484375 70.39818572998047 225.6087646484375 70.8671875 222.5233154296875 70.8671875 Z" stroke="none"/>
      <path d="M 23.24870300292969 1 C 10.98072814941406 1 1.000015258789062 8.651626586914062 1.000015258789062 18.0567512512207 L 1.000015258789062 53.31044006347656 C 1.000015258789062 62.71556091308594 10.98072814941406 70.3671875 23.24870300292969 70.3671875 L 222.5233154296875 70.3671875 C 234.791259765625 70.3671875 244.7719421386719 62.71556091308594 244.7719421386719 53.31044006347656 L 244.7719421386719 18.0567512512207 C 244.7719421386719 8.651626586914062 234.791259765625 1 222.5233154296875 1 L 23.24870300292969 1 M 23.24870300292969 0 L 222.5233154296875 0 C 235.3631896972656 0 245.7719421386719 8.084281921386719 245.7719421386719 18.0567512512207 L 245.7719421386719 53.31044006347656 C 245.7719421386719 63.28290557861328 235.3631896972656 71.3671875 222.5233154296875 71.3671875 L 23.24870300292969 71.3671875 C 10.40879821777344 71.3671875 1.52587890625e-05 63.28290557861328 1.52587890625e-05 53.31044006347656 L 1.52587890625e-05 18.0567512512207 C 1.52587890625e-05 8.084281921386719 10.40879821777344 0 23.24870300292969 0 Z" stroke="none" fill="#707070"/>
    </g>
    <g id="Trazado_736436" data-name="Trazado 736436" transform="translate(231.136 752)" fill="#4dd0e1">
      <path d="M 107.0743713378906 66.62793731689453 L 11.18686485290527 66.62793731689453 C 8.372465133666992 66.62793731689453 5.711495876312256 64.941162109375 3.694126844406128 61.87834930419922 C 1.634357690811157 58.75117874145508 0.5000038146972656 54.58374786376953 0.5000038146972656 50.14376449584961 L 0.5000038146972656 16.98418045043945 C 0.5000038146972656 12.54417991638184 1.634357690811157 8.376765251159668 3.694126844406128 5.249580383300781 C 5.711495876312256 2.18676495552063 8.372465133666992 0.499995619058609 11.18686485290527 0.499995619058609 L 107.0743713378906 0.499995619058609 C 109.8887710571289 0.499995619058609 112.5497436523438 2.18676495552063 114.5670928955078 5.249580383300781 C 116.6268463134766 8.376749038696289 117.7612075805664 12.54417991638184 117.7612075805664 16.98418045043945 L 117.7612075805664 50.14376449584961 C 117.7612075805664 54.58374786376953 116.6268463134766 58.75117874145508 114.5670928955078 61.87834930419922 C 112.5497436523438 64.941162109375 109.8887710571289 66.62793731689453 107.0743713378906 66.62793731689453 Z" stroke="none"/>
      <path d="M 11.18686676025391 0.9999923706054688 C 8.546173095703125 0.9999923706054688 6.033493041992188 2.60687255859375 4.111679077148438 5.524612426757812 C 2.105079650878906 8.571071624755859 1 12.64082717895508 1 16.98418045043945 L 1 50.14374923706055 C 1 54.48710250854492 2.105079650878906 58.55685806274414 4.111679077148438 61.60331726074219 C 6.033493041992188 64.52105712890625 8.546173095703125 66.12793731689453 11.18686676025391 66.12793731689453 L 107.0743560791016 66.12793731689453 C 109.7150497436523 66.12793731689453 112.2277297973633 64.52105712890625 114.149543762207 61.60331726074219 C 116.1561279296875 58.55685806274414 117.2611999511719 54.48710250854492 117.2611999511719 50.14374923706055 L 117.2611999511719 16.98418045043945 C 117.2611999511719 12.64082717895508 116.1561279296875 8.571071624755859 114.149543762207 5.524612426757812 C 112.2277297973633 2.60687255859375 109.7150497436523 0.9999923706054688 107.0743560791016 0.9999923706054688 L 11.18686676025391 0.9999923706054688 M 11.18686676025391 -7.62939453125e-06 L 107.0743560791016 -7.62939453125e-06 C 113.2526931762695 -7.62939453125e-06 118.2612075805664 7.604072570800781 118.2612075805664 16.98418045043945 L 118.2612075805664 50.14374923706055 C 118.2612075805664 59.52385711669922 113.2526931762695 67.12793731689453 107.0743560791016 67.12793731689453 L 11.18686676025391 67.12793731689453 C 5.008529663085938 67.12793731689453 0 59.52385711669922 0 50.14374923706055 L 0 16.98418045043945 C 0 7.604072570800781 5.008529663085938 -7.62939453125e-06 11.18686676025391 -7.62939453125e-06 Z" stroke="none" fill="#707070"/>
    </g>
    <g id="Trazado_736437" data-name="Trazado 736437" transform="translate(231.136 871)" fill="#4dd0e1">
      <path d="M 107.0743713378906 66.62793731689453 L 11.18686485290527 66.62793731689453 C 8.372465133666992 66.62793731689453 5.711495876312256 64.941162109375 3.694126844406128 61.87834930419922 C 1.634357690811157 58.75117874145508 0.5000038146972656 54.58374786376953 0.5000038146972656 50.14376449584961 L 0.5000038146972656 16.98418045043945 C 0.5000038146972656 12.54417991638184 1.634357690811157 8.376765251159668 3.694126844406128 5.249580383300781 C 5.711495876312256 2.18676495552063 8.372465133666992 0.499995619058609 11.18686485290527 0.499995619058609 L 107.0743713378906 0.499995619058609 C 109.8887710571289 0.499995619058609 112.5497436523438 2.18676495552063 114.5670928955078 5.249580383300781 C 116.6268463134766 8.376749038696289 117.7612075805664 12.54417991638184 117.7612075805664 16.98418045043945 L 117.7612075805664 50.14376449584961 C 117.7612075805664 54.58374786376953 116.6268463134766 58.75117874145508 114.5670928955078 61.87834930419922 C 112.5497436523438 64.941162109375 109.8887710571289 66.62793731689453 107.0743713378906 66.62793731689453 Z" stroke="none"/>
      <path d="M 11.18686676025391 0.9999923706054688 C 8.546173095703125 0.9999923706054688 6.033493041992188 2.60687255859375 4.111679077148438 5.524612426757812 C 2.105079650878906 8.571071624755859 1 12.64082717895508 1 16.98418045043945 L 1 50.14374923706055 C 1 54.48710250854492 2.105079650878906 58.55685806274414 4.111679077148438 61.60331726074219 C 6.033493041992188 64.52105712890625 8.546173095703125 66.12793731689453 11.18686676025391 66.12793731689453 L 107.0743560791016 66.12793731689453 C 109.7150497436523 66.12793731689453 112.2277297973633 64.52105712890625 114.149543762207 61.60331726074219 C 116.1561279296875 58.55685806274414 117.2611999511719 54.48710250854492 117.2611999511719 50.14374923706055 L 117.2611999511719 16.98418045043945 C 117.2611999511719 12.64082717895508 116.1561279296875 8.571071624755859 114.149543762207 5.524612426757812 C 112.2277297973633 2.60687255859375 109.7150497436523 0.9999923706054688 107.0743560791016 0.9999923706054688 L 11.18686676025391 0.9999923706054688 M 11.18686676025391 -7.62939453125e-06 L 107.0743560791016 -7.62939453125e-06 C 113.2526931762695 -7.62939453125e-06 118.2612075805664 7.604072570800781 118.2612075805664 16.98418045043945 L 118.2612075805664 50.14374923706055 C 118.2612075805664 59.52385711669922 113.2526931762695 67.12793731689453 107.0743560791016 67.12793731689453 L 11.18686676025391 67.12793731689453 C 5.008529663085938 67.12793731689453 0 59.52385711669922 0 50.14374923706055 L 0 16.98418045043945 C 0 7.604072570800781 5.008529663085938 -7.62939453125e-06 11.18686676025391 -7.62939453125e-06 Z" stroke="none" fill="#707070"/>
    </g>
    <g id="Trazado_736438" data-name="Trazado 736438" transform="translate(231.136 991.116)" fill="#4dd0e1">
      <path d="M 107.0743713378906 93.82421875 L 11.18686485290527 93.82421875 C 9.804203987121582 93.82421875 8.451865196228027 93.23655700683594 7.167388439178467 92.07755279541016 C 5.884988307952881 90.92041778564453 4.728250026702881 89.25315856933594 3.729296207427979 87.12204742431641 C 1.646849989891052 82.67955780029297 0.5000038146972656 76.76184844970703 0.5000038146972656 70.45906066894531 L 0.5000038146972656 23.86515617370605 C 0.5000038146972656 17.56237030029297 1.646849989891052 11.64466285705566 3.729296207427979 7.202170848846436 C 4.728250026702881 5.071063041687012 5.884988307952881 3.403801679611206 7.167388439178467 2.246663331985474 C 8.451865196228027 1.087663173675537 9.804203987121582 0.5000016689300537 11.18686485290527 0.5000016689300537 L 107.0743713378906 0.5000016689300537 C 108.45703125 0.5000016689300537 109.8093719482422 1.087663173675537 111.0938339233398 2.246663331985474 C 112.3762359619141 3.403801679611206 113.5329742431641 5.071063041687012 114.5319290161133 7.202170848846436 C 116.6143569946289 11.64466285705566 117.7612075805664 17.56235504150391 117.7612075805664 23.86515617370605 L 117.7612075805664 70.45906066894531 C 117.7612075805664 76.76186370849609 116.6143569946289 82.67955780029297 114.5319290161133 87.12204742431641 C 113.5329742431641 89.25315856933594 112.3762359619141 90.92041778564453 111.0938339233398 92.07755279541016 C 109.8093719482422 93.23655700683594 108.45703125 93.82421875 107.0743713378906 93.82421875 Z" stroke="none"/>
      <path d="M 11.18686676025391 1 C 9.931755065917969 1 8.692108154296875 1.544342041015625 7.502342224121094 2.617881774902344 C 6.269668579101562 3.730155944824219 5.152542114257812 5.343925476074219 4.182022094726562 7.414382934570312 C 2.13006591796875 11.79184722900391 1 17.63418579101562 1 23.86515808105469 L 1 70.45906066894531 C 1 76.69003295898438 2.13006591796875 82.53237152099609 4.182022094726562 86.90983581542969 C 5.152542114257812 88.98029327392578 6.269668579101562 90.59406280517578 7.502342224121094 91.70633697509766 C 8.692108154296875 92.77987670898438 9.931755065917969 93.32421875 11.18686676025391 93.32421875 L 107.0743560791016 93.32421875 C 108.3294677734375 93.32421875 109.5691146850586 92.77987670898438 110.7588806152344 91.70633697509766 C 111.9915542602539 90.59406280517578 113.1086654663086 88.98029327392578 114.0792007446289 86.90983581542969 C 116.1311416625977 82.53237152099609 117.2611999511719 76.69003295898438 117.2611999511719 70.45906066894531 L 117.2611999511719 23.86515808105469 C 117.2611999511719 17.63418579101562 116.1311416625977 11.79184722900391 114.0792007446289 7.414382934570312 C 113.1086654663086 5.343925476074219 111.9915542602539 3.730155944824219 110.7588806152344 2.617881774902344 C 109.5691146850586 1.544342041015625 108.3294677734375 1 107.0743560791016 1 L 11.18686676025391 1 M 11.18686676025391 0 L 107.0743560791016 0 C 113.2526931762695 0 118.2612075805664 10.68479919433594 118.2612075805664 23.86515808105469 L 118.2612075805664 70.45906066894531 C 118.2612075805664 83.63941955566406 113.2526931762695 94.32421875 107.0743560791016 94.32421875 L 11.18686676025391 94.32421875 C 5.008529663085938 94.32421875 0 83.63941955566406 0 70.45906066894531 L 0 23.86515808105469 C 0 10.68479919433594 5.008529663085938 0 11.18686676025391 0 Z" stroke="none" fill="#707070"/>
    </g>
    <g id="Trazado_736434" data-name="Trazado 736434" transform="translate(391.567 870.742)" fill="#4dd0e1">
      <path d="M 106.668830871582 66.88574981689453 L 11.14450836181641 66.88574981689453 C 8.34213924407959 66.88574981689453 5.692154407501221 65.19271850585938 3.682677507400513 62.1185188293457 C 1.630292892456055 58.97870254516602 0.5000005960464478 54.79436492919922 0.5000005960464478 50.33633422851562 L 0.5000005960464478 17.04940986633301 C 0.5000005960464478 12.59137916564941 1.630292892456055 8.407055854797363 3.682677507400513 5.267240524291992 C 5.692154407501221 2.193040370941162 8.34213924407959 0.5000095367431641 11.14450836181641 0.5000095367431641 L 106.668830871582 0.5000095367431641 C 109.4711837768555 0.5000095367431641 112.1211700439453 2.193040370941162 114.1306304931641 5.267240524291992 C 116.1829986572266 8.407055854797363 117.3132934570312 12.59137916564941 117.3132934570312 17.04940986633301 L 117.3132934570312 50.33633422851562 C 117.3132934570312 54.79436492919922 116.1829986572266 58.97870254516602 114.1306304931641 62.1185188293457 C 112.1211700439453 65.19271850585938 109.4711837768555 66.88574981689453 106.668830871582 66.88574981689453 Z" stroke="none"/>
      <path d="M 11.14449310302734 0.9999923706054688 C 8.516571044921875 0.9999923706054688 6.015213012695312 2.61260986328125 4.101188659667969 5.540794372558594 C 2.101356506347656 8.600223541259766 1 12.68740844726562 1 17.04940795898438 L 1 50.33633422851562 C 1 54.69833374023438 2.101356506347656 58.78549957275391 4.101188659667969 61.84493255615234 C 6.015213012695312 64.77311706542969 8.516571044921875 66.38573455810547 11.14449310302734 66.38573455810547 L 106.668815612793 66.38573455810547 C 109.2967224121094 66.38573455810547 111.7980804443359 64.77311706542969 113.7121047973633 61.84493255615234 C 115.7119369506836 58.78549957275391 116.8132934570312 54.69833374023438 116.8132934570312 50.33633422851562 L 116.8132934570312 17.04940795898438 C 116.8132934570312 12.68740844726562 115.7119369506836 8.600238800048828 113.7121047973633 5.540794372558594 C 111.7980804443359 2.61260986328125 109.2967224121094 0.9999923706054688 106.668815612793 0.9999923706054688 L 11.14449310302734 0.9999923706054688 M 11.14449310302734 -7.62939453125e-06 L 106.668815612793 -7.62939453125e-06 C 112.8237380981445 -7.62939453125e-06 117.8132934570312 7.633270263671875 117.8132934570312 17.04940795898438 L 117.8132934570312 50.33633422851562 C 117.8132934570312 59.75245666503906 112.8237380981445 67.38573455810547 106.668815612793 67.38573455810547 L 11.14449310302734 67.38573455810547 C 4.989555358886719 67.38573455810547 0 59.75245666503906 0 50.33633422851562 L 0 17.04940795898438 C 0 7.633270263671875 4.989555358886719 -7.62939453125e-06 11.14449310302734 -7.62939453125e-06 Z" stroke="none" fill="#707070"/>
    </g>
    <g id="Trazado_736431" data-name="Trazado 736431" transform="translate(542.636 870.465)" fill="#4dd0e1">
      <path d="M 160.2316131591797 66.62794494628906 L 16.7406063079834 66.62794494628906 C 12.4039478302002 66.62794494628906 8.326493263244629 64.91419219970703 5.259311199188232 61.80239486694336 C 2.190220355987549 58.68864822387695 0.4999930858612061 54.54819107055664 0.4999930858612061 50.14376068115234 L 0.4999930858612061 16.98416900634766 C 0.4999930858612061 12.57973766326904 2.190220355987549 8.43928337097168 5.259311199188232 5.325555801391602 C 8.326493263244629 2.213760375976562 12.4039478302002 0.5000103116035461 16.7406063079834 0.5000103116035461 L 160.2316131591797 0.5000103116035461 C 164.5682373046875 0.5000103116035461 168.6456909179688 2.213760375976562 171.7128753662109 5.325555801391602 C 174.7819519042969 8.43928337097168 176.47216796875 12.57973766326904 176.47216796875 16.98416900634766 L 176.47216796875 50.14376068115234 C 176.47216796875 54.54819107055664 174.7819519042969 58.68864822387695 171.7128753662109 61.80239486694336 C 168.6456909179688 64.91419219970703 164.5682373046875 66.62794494628906 160.2316131591797 66.62794494628906 Z" stroke="none"/>
      <path d="M 16.7406005859375 0.9999847412109375 C 12.53887939453125 0.9999847412109375 8.587860107421875 2.660804748535156 5.615402221679688 5.676532745361328 C 2.63909912109375 8.696125030517578 1 12.71191787719727 1 16.98416900634766 L 1 50.14376068115234 C 1 54.41600799560547 2.63909912109375 58.43180465698242 5.615402221679688 61.45139694213867 C 8.587860107421875 64.46710205078125 12.53886413574219 66.12792205810547 16.7406005859375 66.12792205810547 L 160.2315826416016 66.12792205810547 C 164.4333190917969 66.12792205810547 168.3843078613281 64.46710205078125 171.3567657470703 61.45139694213867 C 174.3330688476562 58.43180465698242 175.97216796875 54.41600799560547 175.97216796875 50.14376068115234 L 175.97216796875 16.98416900634766 C 175.97216796875 12.71191787719727 174.3330688476562 8.696125030517578 171.3567657470703 5.676532745361328 C 168.3843078613281 2.660804748535156 164.4333190917969 0.9999847412109375 160.2315826416016 0.9999847412109375 L 16.7406005859375 0.9999847412109375 M 16.7406005859375 -1.52587890625e-05 L 160.2315826416016 -1.52587890625e-05 C 169.4771270751953 -1.52587890625e-05 176.97216796875 7.604080200195312 176.97216796875 16.98416900634766 L 176.97216796875 50.14376068115234 C 176.97216796875 59.52384948730469 169.4771270751953 67.12792205810547 160.2315826416016 67.12792205810547 L 16.7406005859375 67.12792205810547 C 7.495010375976562 67.12792205810547 0 59.52384948730469 0 50.14376068115234 L 0 16.98416900634766 C 0 7.604080200195312 7.495010375976562 -1.52587890625e-05 16.7406005859375 -1.52587890625e-05 Z" stroke="none" fill="#707070"/>
    </g>
    <text id="Computador" transform="translate(325.576 654.635)" fill="#12263f" font-size="16" font-family="Roboto-Regular, Roboto"><tspan x="-44.426" y="15">Computador</tspan></text>
    <text id="Navegación" transform="translate(802.636 653.071)" fill="#12263f" font-size="16" font-family="Roboto-Regular, Roboto" opacity="0.85"><tspan x="-42.004" y="15">Navegación</tspan></text>
    <text id="Mejor_interacción_entre_usuario_y_computadora" data-name="Mejor interacción entre usuario y computadora" transform="translate(1186.864 645.159)" fill="#12263f" font-size="16" font-family="Roboto-Regular, Roboto" opacity="0.85"><tspan x="-81.902" y="15">Mejor interacción entre </tspan><tspan x="-81.855" y="39">usuario y computadora</tspan></text>
    <text id="Seguridad" transform="translate(976.696 579.1)" fill="#12263f" font-size="16" font-family="Roboto-Regular, Roboto" opacity="0.85"><tspan x="-35.906" y="15">Seguridad</tspan></text>
    <text id="Rapidez" transform="translate(976.696 726.002)" fill="#12263f" font-size="16" font-family="Roboto-Regular, Roboto" opacity="0.85"><tspan x="-28.422" y="15">Rapidez</tspan></text>
    <text id="Configuración_del_sistema_Operativo_según_el_hardware" data-name="Configuración del sistema Operativo según el hardware" transform="translate(509.636 646.609)" fill="#12263f" font-size="16" font-family="Roboto-Regular, Roboto"><tspan x="-92.578" y="15">Configuración del sistema </tspan><tspan x="-100.309" y="39">Operativo según el </tspan><tspan y="39" font-family="Roboto-Italic, Roboto" font-style="italic">hardware</tspan></text>
    <text id="Hardware_" data-name="Hardware " transform="translate(231.136 773.1)" fill="#12263f" font-size="16" font-family="Roboto-Italic, Roboto" font-style="italic"><tspan x="-33.707" y="15">Hardware </tspan></text>
    <text id="Mouse_teclado_impresora_" data-name="Mouse
teclado
impresora
" transform="translate(231.136 1002.304)" fill="#12263f" font-size="16" font-family="Roboto-Regular, Roboto"><tspan x="35.007" y="15">Mouse</tspan><tspan x="32.921" y="39">teclado</tspan><tspan x="23.425" y="63">impresora</tspan></text>
    <text id="Antivirus" transform="translate(391.567 891.613)" fill="#12263f" font-size="16" font-family="Roboto-Regular, Roboto"><tspan x="-31.246" y="15">Antivirus</tspan></text>
    <text id="Dispositivos" transform="translate(231.136 892.1)" fill="#12263f" font-size="16" font-family="Roboto-Regular, Roboto"><tspan x="-43.488" y="15">Dispositivos</tspan></text>
    <text id="Instalar_o_desinstalar_programas" data-name="Instalar o desinstalar programas" transform="translate(542.636 882.565)" fill="#12263f" font-size="16" font-family="Roboto-Regular, Roboto"><tspan x="-74.523" y="15">Instalar o desinstalar </tspan><tspan x="-38.559" y="39">programas</tspan></text>
    <g id="Grupo_929437" data-name="Grupo 929437" transform="translate(232.696 1005.588) rotate(-90)">
      <g id="Grupo_929419" data-name="Grupo 929419" transform="translate(137.963 207.753)">
        <rect id="Rectángulo_313153" data-name="Rectángulo 313153" width="48.988" height="2" transform="translate(-0.215 7.129)" fill="#161615"/>
        <g id="Grupo_929418" data-name="Grupo 929418" transform="translate(-2.84)">
          <path id="Trazado_736424" data-name="Trazado 736424" d="M137.963,215.882l15.009,8.131-3.561-8.131,3.561-8.129Z" transform="translate(-137.963 -207.753)" fill="#161615"/>
        </g>
      </g>
    </g>
    <g id="Grupo_929432" data-name="Grupo 929432" transform="translate(406.883 1005.588) rotate(-90)">
      <g id="Grupo_929419-2" data-name="Grupo 929419" transform="translate(137.963 207.753)">
        <rect id="Rectángulo_313153-2" data-name="Rectángulo 313153" width="84.505" height="2" transform="translate(-0.215 7.129)" fill="#161615"/>
        <g id="Grupo_929418-2" data-name="Grupo 929418" transform="translate(-2.84)">
          <path id="Trazado_736424-2" data-name="Trazado 736424" d="M137.963,215.882l15.009,8.131-3.561-8.131,3.561-8.129Z" transform="translate(-137.963 -207.753)" fill="#161615"/>
        </g>
      </g>
    </g>
    <g id="Grupo_929438" data-name="Grupo 929438" transform="translate(232.696 887.123) rotate(-90)">
      <g id="Grupo_929419-3" data-name="Grupo 929419" transform="translate(137.963 207.753)">
        <rect id="Rectángulo_313153-3" data-name="Rectángulo 313153" width="48.988" height="2" transform="translate(-0.215 7.129)" fill="#161615"/>
        <g id="Grupo_929418-3" data-name="Grupo 929418" transform="translate(-2.84)">
          <path id="Trazado_736424-3" data-name="Trazado 736424" d="M137.963,215.882l15.009,8.131-3.561-8.131,3.561-8.129Z" transform="translate(-137.963 -207.753)" fill="#161615"/>
        </g>
      </g>
    </g>
    <g id="Grupo_929439" data-name="Grupo 929439" transform="translate(462.576 658.098)">
      <g id="Grupo_929419-4" data-name="Grupo 929419" transform="translate(0 0)">
        <rect id="Rectángulo_313153-4" data-name="Rectángulo 313153" width="44.435" height="2" transform="translate(0 7.129)" fill="#161615"/>
        <g id="Grupo_929418-4" data-name="Grupo 929418" transform="translate(32.051)">
          <path id="Trazado_736424-4" data-name="Trazado 736424" d="M152.972,215.882l-15.009,8.131,3.561-8.131-3.561-8.129Z" transform="translate(-137.963 -207.753)" fill="#161615"/>
        </g>
      </g>
    </g>
    <g id="Grupo_929433" data-name="Grupo 929433" transform="translate(755.408 658.098)">
      <g id="Grupo_929419-5" data-name="Grupo 929419" transform="translate(0 0)">
        <rect id="Rectángulo_313153-5" data-name="Rectángulo 313153" width="44.435" height="2" transform="translate(0 7.129)" fill="#161615"/>
        <g id="Grupo_929418-5" data-name="Grupo 929418" transform="translate(32.051)">
          <path id="Trazado_736424-5" data-name="Trazado 736424" d="M152.972,215.882l-15.009,8.131,3.561-8.131-3.561-8.129Z" transform="translate(-137.963 -207.753)" fill="#161615"/>
        </g>
      </g>
    </g>
    <g id="Grupo_929434" data-name="Grupo 929434" transform="translate(1139.636 658.098)">
      <g id="Grupo_929419-6" data-name="Grupo 929419" transform="translate(0 0)">
        <rect id="Rectángulo_313153-6" data-name="Rectángulo 313153" width="44.435" height="2" transform="translate(0 7.129)" fill="#161615"/>
        <g id="Grupo_929418-6" data-name="Grupo 929418" transform="translate(32.051)">
          <path id="Trazado_736424-6" data-name="Trazado 736424" d="M152.972,215.882l-15.009,8.131,3.561-8.131-3.561-8.129Z" transform="translate(-137.963 -207.753)" fill="#161615"/>
        </g>
      </g>
    </g>
    <g id="Grupo_929435" data-name="Grupo 929435" transform="translate(929.636 585.435)">
      <g id="Grupo_929419-7" data-name="Grupo 929419" transform="translate(0 0)">
        <rect id="Rectángulo_313153-7" data-name="Rectángulo 313153" width="111.435" height="2" transform="translate(-67 7.129)" fill="#161615"/>
        <g id="Grupo_929418-7" data-name="Grupo 929418" transform="translate(32.051)">
          <path id="Trazado_736424-7" data-name="Trazado 736424" d="M152.972,215.882l-15.009,8.131,3.561-8.131-3.561-8.129Z" transform="translate(-137.963 -207.753)" fill="#161615"/>
        </g>
      </g>
    </g>
    <g id="Grupo_929436" data-name="Grupo 929436" transform="translate(929.636 729.906)">
      <g id="Grupo_929419-8" data-name="Grupo 929419" transform="translate(-0.989 0)">
        <rect id="Rectángulo_313153-8" data-name="Rectángulo 313153" width="112.424" height="2" transform="translate(-67 7.129)" fill="#161615"/>
        <g id="Grupo_929418-8" data-name="Grupo 929418" transform="translate(33.041)">
          <path id="Trazado_736424-8" data-name="Trazado 736424" d="M152.972,215.882l-15.009,8.131,3.561-8.131-3.561-8.129Z" transform="translate(-137.963 -207.753)" fill="#161615"/>
        </g>
      </g>
    </g>
    <g id="Grupo_929440" data-name="Grupo 929440" transform="translate(75.623 885.749) rotate(-90)">
      <g id="Grupo_929419-9" data-name="Grupo 929419" transform="translate(137.963 207.753)">
        <rect id="Rectángulo_313153-9" data-name="Rectángulo 313153" width="79.651" height="2" transform="translate(-0.215 7.129)" fill="#161615"/>
        <g id="Grupo_929418-9" data-name="Grupo 929418" transform="translate(-2.84)">
          <path id="Trazado_736424-9" data-name="Trazado 736424" d="M137.963,215.882l15.009,8.131-3.561-8.131,3.561-8.129Z" transform="translate(-137.963 -207.753)" fill="#161615"/>
        </g>
      </g>
    </g>
    <g id="Grupo_929441" data-name="Grupo 929441" transform="translate(75.623 1005.865) rotate(-90)">
      <g id="Grupo_929419-10" data-name="Grupo 929419" transform="translate(137.963 207.753)">
        <rect id="Rectángulo_313153-10" data-name="Rectángulo 313153" width="48.988" height="2" transform="translate(-0.215 7.129)" fill="#161615"/>
        <g id="Grupo_929418-10" data-name="Grupo 929418" transform="translate(-2.84)">
          <path id="Trazado_736424-10" data-name="Trazado 736424" d="M137.963,215.882l15.009,8.131-3.561-8.131,3.561-8.129Z" transform="translate(-137.963 -207.753)" fill="#161615"/>
        </g>
      </g>
    </g>
    <g id="Grupo_929442" data-name="Grupo 929442" transform="translate(75.623 1124.865) rotate(-90)">
      <g id="Grupo_929419-11" data-name="Grupo 929419" transform="translate(137.963 207.753)">
        <rect id="Rectángulo_313153-11" data-name="Rectángulo 313153" width="48.988" height="2" transform="translate(-0.215 7.129)" fill="#161615"/>
        <g id="Grupo_929418-11" data-name="Grupo 929418" transform="translate(-2.84)">
          <path id="Trazado_736424-11" data-name="Trazado 736424" d="M137.963,215.882l15.009,8.131-3.561-8.131,3.561-8.129Z" transform="translate(-137.963 -207.753)" fill="#161615"/>
        </g>
      </g>
    </g>
    <rect id="Rectángulo_313166" data-name="Rectángulo 313166" width="34.988" height="2" transform="translate(325.576 670.12) rotate(180)" fill="#161615"/>
    <path id="Trazado_736432" data-name="Trazado 736432" d="M-.167-.04,115.123,0V2L-.167,1.96Z" transform="translate(623.636 784.851) rotate(180)" fill="#161615"/>
    <g id="Trazado_736435" data-name="Trazado 736435" transform="translate(391.567 752)" fill="#4dd0e1">
      <path d="M 106.668830871582 66.62793731689453 L 11.14450836181641 66.62793731689453 C 8.341785430908203 66.62793731689453 5.691616058349609 64.94142913818359 3.682185173034668 61.87908935546875 C 1.630123615264893 58.75175094604492 0.5000005960464478 54.58405685424805 0.5000005960464478 50.14376449584961 L 0.5000005960464478 16.98418045043945 C 0.5000005960464478 12.54388809204102 1.630123615264893 8.376195907592773 3.682185173034668 5.248857021331787 C 5.691616058349609 2.186503410339355 8.341785430908203 0.499995619058609 11.14450836181641 0.499995619058609 L 106.668830871582 0.499995619058609 C 109.4715423583984 0.499995619058609 112.121711730957 2.186503410339355 114.1311111450195 5.248857021331787 C 116.1831665039062 8.376195907592773 117.3132934570312 12.54388809204102 117.3132934570312 16.98418045043945 L 117.3132934570312 50.14376449584961 C 117.3132934570312 54.58405685424805 116.1831665039062 58.75175094604492 114.1311111450195 61.87908935546875 C 112.121711730957 64.94142913818359 109.4715423583984 66.62793731689453 106.668830871582 66.62793731689453 Z" stroke="none"/>
      <path d="M 11.14449310302734 0.9999923706054688 C 8.515846252441406 0.9999923706054688 6.014137268066406 2.606346130371094 4.100234985351562 5.523147583007812 C 2.10101318359375 8.569950103759766 1 12.64020919799805 1 16.98418045043945 L 1 50.14376449584961 C 1 54.48771667480469 2.10101318359375 58.5579948425293 4.1002197265625 61.60478210449219 C 6.014137268066406 64.52158355712891 8.515846252441406 66.12793731689453 11.14449310302734 66.12793731689453 L 106.668815612793 66.12793731689453 C 109.2974624633789 66.12793731689453 111.7991561889648 64.52158355712891 113.7130737304688 61.60478210449219 C 115.7122802734375 58.5579948425293 116.8132934570312 54.48771667480469 116.8132934570312 50.14376449584961 L 116.8132934570312 16.98418045043945 C 116.8132934570312 12.64022827148438 115.7122802734375 8.569950103759766 113.7130737304688 5.523147583007812 C 111.7991561889648 2.606346130371094 109.2974624633789 0.9999923706054688 106.668815612793 0.9999923706054688 L 11.14449310302734 0.9999923706054688 M 11.14449310302734 -7.62939453125e-06 L 106.668815612793 -7.62939453125e-06 C 112.8237380981445 -7.62939453125e-06 117.8132934570312 7.604072570800781 117.8132934570312 16.98418045043945 L 117.8132934570312 50.14376449584961 C 117.8132934570312 59.52387237548828 112.8237380981445 67.12793731689453 106.668815612793 67.12793731689453 L 11.14449310302734 67.12793731689453 C 4.989555358886719 67.12793731689453 0 59.52387237548828 0 50.14376449584961 L 0 16.98418045043945 C 0 7.604072570800781 4.989555358886719 -7.62939453125e-06 11.14449310302734 -7.62939453125e-06 Z" stroke="none" fill="#707070"/>
    </g>
    <text id="Software" transform="translate(391.567 773.822)" fill="#12263f" font-size="16" font-family="Roboto-Italic, Roboto" font-style="italic"><tspan x="-31.289" y="15">Software</tspan></text>
    <rect id="Rectángulo_313161" data-name="Rectángulo 313161" width="39.367" height="2" transform="translate(861.636 631.972) rotate(-90)" fill="#161615"/>
    <rect id="Rectángulo_313162" data-name="Rectángulo 313162" width="145.862" height="2" transform="translate(1137.636 738.467) rotate(-90)" fill="#161615"/>
    <rect id="Rectángulo_313163" data-name="Rectángulo 313163" width="39.367" height="2" transform="translate(861.636 738.467) rotate(-90)" fill="#161615"/>
    <rect id="Rectángulo_313164" data-name="Rectángulo 313164" width="38.295" height="2" transform="translate(1101.341 737.034)" fill="#161615"/>
    <rect id="Rectángulo_313165" data-name="Rectángulo 313165" width="38.295" height="2" transform="translate(1101.341 592.604)" fill="#161615"/>
  </g>
</svg>
